# xmcd
#
# Track frame offsets: 
#        150
#        11061
#        24410
#        35283
#        46095
#        59104
#        69363
#        78378
#        91211
#        101463
#        114414
#        123684
#        134295
#        145900
#        156013
#        168561
#        178381
#        188641
#        200399
#        213057
#        225069
#        234243
#        245129
#        256031
#        266138
#        275412
#        284673
#        295319
#        306431
#        317268
#
# Disc length: 4371 seconds
#
# Revision: 3
# Processed by: cddbd v1.5.2PL0 Copyright (c) Steve Scherf et al.
# Submitted via: ExactAudioCopyFreeDBPlugin 1.0
#
DISCID=a911111e
DTITLE=Various Artist - Chills and Fever:  30 One Hit Wonders of US Rhy
DTITLE=thm and Blues
DYEAR=2014
DGENRE=Rhythm and Blues
TTITLE0=Bunker Hill - Hide and Go Seek (Part 1)
TTITLE1=Boogaloo and His Gallant Crew - Cops and Robbers
TTITLE2=Benny Spellman - Lipstick Traces (On a Cigarette)
TTITLE3=Prince La La - She Put the Hurt on Me
TTITLE4=Johnny Morisette - Meet Me at the Twistin' Place
TTITLE5=The Sims Twins - Soothe Me
TTITLE6=The Aquatones - You
TTITLE7=The Quin-Tones - Down the Aisle of Love
TTITLE8=The Original Casuals - So Tough
TTITLE9=The Halos - Nag
TTITLE10=The Majors - A Wonderful Dream
TTITLE11=The Monotones - Book of Love 2
TTITLE12=The Impalas - Sorry (I Ran All the Way Home)
TTITLE13=The Jarmels - A Little Bit of Soap
TTITLE14=The Silhouettes - Get a Job
TTITLE15=Billie and Lillie - La Dee Dah
TTITLE16=The Flares - Foot Stompin' (Part 1)
TTITLE17=Joe Jones - You Talk Too Much
TTITLE18=The Spacemen - The Clouds
TTITLE19=Wynona Carr - Should I Ever Love Again?
TTITLE20=James Ray - If You Gotta Make a Fool of Somebody
TTITLE21=Phil Phillips and The Twilights - Sea of Love
TTITLE22=Elton Anderson - Secret of Love
TTITLE23=The Bobbettes - Mr Lee
TTITLE24=The Accents - Wiggle Wiggle
TTITLE25=Nathaniel Mayer and The Fabulous Twilights - Village of Love
TTITLE26=Billy Bland - Let the Little Girl Dance
TTITLE27=Ronnie Love - Chills and Fever
TTITLE28=Claudine Clark - Party Lights
TTITLE29=Barbara George - I Know (You Don't Love Me No More)
EXTD=YEAR: 2014
EXTT0=
EXTT1=
EXTT2=
EXTT3=
EXTT4=
EXTT5=
EXTT6=
EXTT7=
EXTT8=
EXTT9=
EXTT10=
EXTT11=
EXTT12=
EXTT13=
EXTT14=
EXTT15=
EXTT16=
EXTT17=
EXTT18=
EXTT19=
EXTT20=
EXTT21=
EXTT22=
EXTT23=
EXTT24=
EXTT25=
EXTT26=
EXTT27=
EXTT28=
EXTT29=
PLAYORDER=
